Coordinates
version=1
nRows=14
nColumns=40
inDegrees=yes

Units are S.I. units (second, meters, Newtons, ...)
If the header above contains a line with 'inDegrees', this indicates whether rotational values are in degrees (yes) or radians (no).

endheader
time	pelvis_tilt	pelvis_list	pelvis_rotation	pelvis_tx	pelvis_ty	pelvis_tz	hip_flexion_r	hip_adduction_r	hip_rotation_r	knee_angle_r	knee_angle_r_beta	ankle_angle_r	subtalar_angle_r	mtp_angle_r	hip_flexion_l	hip_adduction_l	hip_rotation_l	knee_angle_l	knee_angle_l_beta	ankle_angle_l	subtalar_angle_l	mtp_angle_l	lumbar_extension	lumbar_bending	lumbar_rotation	arm_flex_r	arm_add_r	arm_rot_r	elbow_flex_r	pro_sup_r	wrist_flex_r	wrist_dev_r	arm_flex_l	arm_add_l	arm_rot_l	elbow_flex_l	pro_sup_l	wrist_flex_l	wrist_dev_l
      2.92500000	      1.05305017	     -1.14647970	     -5.01506690	     -0.37222315	      0.95760434	     -0.99958790	     44.49997515	     -2.10108199	      8.37367200	     23.41736430	      0.40871011	      2.66017460	      0.00000000	      0.00000000	     31.49034143	     -3.57366289	    -10.09261947	     56.18557381	      0.98062326	     11.34051884	      0.00000000	      0.00000000	    -17.33047827	     -5.50228193	     -1.60773718	     89.81041753	     -7.01257536	     55.74653333	     48.97710297	     84.23562008	      0.00000000	      0.00000000	     89.90280247	    -18.23507543	     53.68463377	     56.96055870	     82.16007669	      0.00000000	      0.00000000
      2.93000000	      0.94761802	     -1.06505122	     -4.96446999	     -0.37268094	      0.95683071	     -0.99959430	     44.75170710	     -2.14239364	      8.34692628	     23.42483998	      0.40884058	      2.59751770	      0.00000000	      0.00000000	     31.72059755	     -3.50579942	    -10.07883646	     56.33580482	      0.98324528	     11.38461054	      0.00000000	      0.00000000	    -17.25610114	     -5.58601880	     -1.67232430	     89.80986276	     -6.93553489	     55.66572208	     48.88189763	     80.89266367	      0.00000000	      0.00000000	     89.90434206	    -18.15532335	     53.78429901	     56.96355012	     79.11405812	      0.00000000	      0.00000000
      2.93500000	      0.97944051	     -0.98916765	     -4.95140469	     -0.37293867	      0.95630814	     -0.99955419	     44.88601596	     -2.17922383	      8.25859325	     23.58738394	      0.41167751	      2.80261381	      0.00000000	      0.00000000	     31.75251173	     -3.50059547	    -10.24385562	     56.44726936	      0.98519070	     11.39927349	      0.00000000	      0.00000000	    -17.33603284	     -5.67195222	     -1.70995668	     89.81511859	     -6.96951935	     55.43213867	     48.93129656	     84.34300366	      0.00000000	      0.00000000	     89.90441960	    -18.18185091	     53.46075007	     57.03444173	     81.98594128	      0.00000000	      0.00000000
      2.94000000	      0.91382623	     -0.92354909	     -4.91199245	     -0.37329101	      0.95582131	     -0.99954139	     45.07461259	     -2.20830452	      8.18341701	     23.59231670	      0.41176360	      2.72576115	      0.00000000	      0.00000000	     31.89716873	     -3.48157213	    -10.33647859	     56.53833517	      0.98678010	     11.37700420	      0.00000000	      0.00000000	    -17.30780517	     -5.72782384	     -1.77988613	     89.81748092	     -6.94004827	     55.59592375	     49.05397273	     81.43847930	      0.00000000	      0.00000000	     89.90471705	    -18.20219920	     53.53646192	     57.11475080	     79.42998611	      0.00000000	      0.00000000
      2.94500000	      0.86900430	     -0.81322245	     -4.82694759	     -0.37373574	      0.95503932	     -0.99960137	     45.31034780	     -2.32215726	      8.11549365	     23.74052554	      0.41435034	      2.69864108	      0.00000000	      0.00000000	     32.06487366	     -3.37910132	    -10.35247607	     56.68612516	      0.98935952	     11.39436782	      0.00000000	      0.00000000	    -17.31038183	     -5.84516422	     -1.88703944	     89.81837210	     -6.96562066	     55.22685850	     49.05297278	     84.46073157	      0.00000000	      0.00000000	     89.90586231	    -18.11238835	     53.27507638	     57.00501972	     81.61022265	      0.00000000	      0.00000000
      2.95000000	      0.75706707	     -0.78576296	     -4.73449680	     -0.37419978	      0.95442639	     -0.99955405	     45.55630857	     -2.34632495	      7.96575443	     23.79509576	      0.41530277	      2.75414744	      0.00000000	      0.00000000	     32.29176788	     -3.37074566	    -10.34343552	     56.81705097	      0.99164461	     11.38947332	      0.00000000	      0.00000000	    -17.25871983	     -5.85899683	     -1.96131553	     89.81996845	     -6.92632858	     55.05767350	     48.87920713	     84.40048585	      0.00000000	      0.00000000	     89.90634586	    -18.05191238	     53.12423238	     56.98491610	     81.97262982	      0.00000000	      0.00000000
      2.95500000	      0.67510734	     -0.74477040	     -4.57780127	     -0.37459973	      0.95375298	     -0.99971217	     45.76068783	     -2.44408320	      7.83135749	     23.82279548	      0.41578622	      2.51187191	      0.00000000	      0.00000000	     32.51031318	     -3.25980030	    -10.17110582	     56.97269583	      0.99436113	     11.48146695	      0.00000000	      0.00000000	    -17.21410704	     -5.87990916	     -2.07117180	     89.81616017	     -6.90813349	     55.00207489	     48.80619126	     80.13639992	      0.00000000	      0.00000000	     89.90855145	    -17.89936363	     53.33032311	     56.95011490	     78.17336841	      0.00000000	      0.00000000
      2.96000000	      0.60055644	     -0.66877516	     -4.54558808	     -0.37491960	      0.95309213	     -0.99968094	     46.00331083	     -2.45072302	      7.82646123	     23.98450575	      0.41860859	      2.84548156	      0.00000000	      0.00000000	     32.64708007	     -3.25790913	    -10.34102884	     57.04378695	      0.99560190	     11.50774085	      0.00000000	      0.00000000	    -17.17594242	     -5.95282056	     -2.15796100	     89.82299003	     -6.94674091	     54.84404085	     48.86464715	     84.53513016	      0.00000000	      0.00000000	     89.90805831	    -17.96267955	     52.96497845	     56.97937720	     81.50901981	      0.00000000	      0.00000000
      2.96500000	      0.49984781	     -0.62914766	     -4.48046153	     -0.37527795	      0.95246163	     -0.99963250	     46.21230424	     -2.46879719	      7.81846581	     23.99371333	      0.41876930	      2.81885461	      0.00000000	      0.00000000	     32.84320440	     -3.22719661	    -10.32409000	     57.14863914	      0.99743192	     11.50763213	      0.00000000	      0.00000000	    -17.13352244	     -5.98990544	     -2.21803391	     89.82480878	     -6.93300138	     54.70223535	     48.82081049	     84.31609917	      0.00000000	      0.00000000	     89.90839935	    -17.91181041	     52.83871529	     56.96676882	     81.71274721	      0.00000000	      0.00000000
      2.97000000	      0.42286106	     -0.58910052	     -4.38030982	     -0.37564178	      0.95189719	     -0.99967023	     46.40744886	     -2.51303339	      7.73769489	     24.04423965	      0.41965115	      2.80822079	      0.00000000	      0.00000000	     33.02392081	     -3.14906773	    -10.23261254	     57.26107144	      0.99939423	     11.57048067	      0.00000000	      0.00000000	    -17.11775260	     -6.01477799	     -2.31545519	     89.82798706	     -7.01053345	     54.82786840	     49.03626535	     83.81863395	      0.00000000	      0.00000000	     89.90914040	    -17.88089683	     52.73162387	     57.00498707	     81.31014814	      0.00000000	      0.00000000
      2.97500000	      0.42719586	     -0.55614174	     -4.27893298	     -0.37600230	      0.95134359	     -0.99974699	     46.50074013	     -2.54713740	      7.74321558	     24.06021776	      0.41993002	      2.70007494	      0.00000000	      0.00000000	     33.13493692	     -3.08207180	    -10.18016742	     57.43472409	      1.00242504	     11.59592715	      0.00000000	      0.00000000	    -17.17000106	     -6.01917246	     -2.38330722	     89.82525494	     -6.86929993	     54.69515805	     48.81057848	     79.57367958	      0.00000000	      0.00000000	     89.91131678	    -17.77599601	     52.92130141	     56.95920736	     77.58975118	      0.00000000	      0.00000000
      2.98000000	      0.40402886	     -0.47759710	     -4.17527707	     -0.37627753	      0.95067279	     -0.99981854	     46.74447820	     -2.63746031	      7.56573145	     24.35291735	      0.42503859	      2.96344694	      0.00000000	      0.00000000	     33.22908344	     -3.00690787	    -10.24502888	     57.50981550	      1.00373563	     11.59965406	      0.00000000	      0.00000000	    -17.17653496	     -6.10160624	     -2.49258662	     89.83224020	     -6.95196059	     54.49499358	     48.79745210	     84.20168525	      0.00000000	      0.00000000	     89.91079348	    -17.72663453	     52.54310848	     56.87728442	     82.39723142	      0.00000000	      0.00000000
      2.98500000	      0.29585387	     -0.37497176	     -4.03514725	     -0.37669013	      0.94998901	     -0.99991013	     47.03228191	     -2.75767809	      7.45463932	     24.50354122	      0.42766747	      2.87071096	      0.00000000	      0.00000000	     33.45716595	     -2.82728185	    -10.10253896	     57.61219581	      1.00552251	     11.63277439	      0.00000000	      0.00000000	    -17.12617422	     -6.18543257	     -2.64183113	     89.83288492	     -6.88113155	     54.42283288	     48.73670171	     80.98164565	      0.00000000	      0.00000000	     89.91185311	    -17.64093283	     52.48941021	     56.86838683	     79.40675316	      0.00000000	      0.00000000
      2.99000000	      0.22833980	     -0.36629970	     -3.84656701	     -0.37710276	      0.94936993	     -1.00000006	     47.20599065	     -2.84488033	      7.29537972	     24.57215820	      0.42886506	      2.75942756	      0.00000000	      0.00000000	     33.66269495	     -2.72208094	     -9.89531596	     57.76472988	      1.00818473	     11.63449949	      0.00000000	      0.00000000	    -17.12347938	     -6.16284859	     -2.77866510	     89.83347656	     -6.90639075	     54.40366706	     48.74319134	     76.95698501	      0.00000000	      0.00000000	     89.91325001	    -17.53506925	     52.53771554	     56.83252153	     75.47783013	      0.00000000	      0.00000000
